# Utah Teapot Model
# Version: 1976 - Jim Blinn
# Triangle Mesh Resolution: 2 (216 faces)
o Utah Teapot

v -1.5 0 2.1
v -1.55 -0.225 1.9875
v -1.6 0 1.875
v -2.625 0 2.04375
v -2.51875 -0.225 1.945313
v -2.4125 0 1.846875
v -3 0 1.65
v -2.85 -0.225 1.65
v -2.7 0 1.65
v -1.55 0.225 1.9875
v -2.51875 0.225 1.945313
v -2.85 0.225 1.65
v -2.73125 0 1.007812
v -2.634375 -0.225 1.103906
v -2.5375 0 1.2
v -1.9 0 0.45
v -1.95 -0.225 0.6
v -2 0 0.75
v -2.634375 0.225 1.103906
v -1.95 0.225 0.6
v 2.8 0 2.25
v 3 -0.1125 2.25
v 3.2 0 2.25
v 2.825 0 2.30625
v 3.126563 -0.15 2.316797
v 3.428125 0 2.327344
v 2.7 0 2.25
v 3 -0.1875 2.25
v 3.3 0 2.25
v 3 0.1125 2.25
v 3.126563 0.15 2.316797
v 3 0.1875 2.25
v 2.3875 0 1.65
v 2.5375 -0.34125 1.471875
v 2.6875 0 1.29375
v 1.7 0 1.275
v 1.7 -0.495 0.8625
v 1.7 0 0.45
v 2.5375 0.34125 1.471875
v 1.7 0.495 0.8625
v 0 0 3
v -0.325 0 2.83125
v -0.2310313 -0.2310313 2.83125
v 0 -0.325 2.83125
v -0.2 0 2.55
v -0.142 -0.142 2.55
v 0 -0.2 2.55
v 0.2310313 -0.2310313 2.83125
v 0.325 0 2.83125
v 0.142 -0.142 2.55
v 0.2 0 2.55
v 0 0.325 2.83125
v 0.2310313 0.2310313 2.83125
v 0 0.2 2.55
v 0.142 0.142 2.55
v -0.2310313 0.2310313 2.83125
v -0.142 0.142 2.55
v -0.825 0 2.4
v -0.58575 -0.58575 2.4
v 0 -0.825 2.4
v -1.3 0 2.25
v -0.923 -0.923 2.25
v 0 -1.3 2.25
v 0.58575 -0.58575 2.4
v 0.825 0 2.4
v 0.923 -0.923 2.25
v 1.3 0 2.25
v 0 0.825 2.4
v 0.58575 0.58575 2.4
v 0 1.3 2.25
v 0.923 0.923 2.25
v -0.58575 0.58575 2.4
v -0.923 0.923 2.25
v -1.4 0 2.25
v -0.994 -0.994 2.25
v 0 -1.4 2.25
v -1.403125 0 2.348438
v -0.9962187 -0.9962187 2.348438
v 0 -1.403125 2.348438
v -1.5 0 2.25
v -1.065 -1.065 2.25
v 0 -1.5 2.25
v 0.994 -0.994 2.25
v 1.4 0 2.25
v 0.9962187 -0.9962187 2.348438
v 1.403125 0 2.348438
v 1.065 -1.065 2.25
v 1.5 0 2.25
v 0 1.4 2.25
v 0.994 0.994 2.25
v 0 1.403125 2.348438
v 0.9962187 0.9962187 2.348438
v 0 1.5 2.25
v 1.065 1.065 2.25
v -0.994 0.994 2.25
v -0.9962187 0.9962187 2.348438
v -1.065 1.065 2.25
v -1.84375 0 1.471875
v -1.309063 -1.309063 1.471875
v 0 -1.84375 1.471875
v -2 0 0.75
v -1.42 -1.42 0.75
v 0 -2 0.75
v 1.309063 -1.309063 1.471875
v 1.84375 0 1.471875
v 1.42 -1.42 0.75
v 2 0 0.75
v 0 1.84375 1.471875
v 1.309063 1.309063 1.471875
v 0 2 0.75
v 1.42 1.42 0.75
v -1.309063 1.309063 1.471875
v -1.42 1.42 0.75
v -1.75 0 0.234375
v -1.2425 -1.2425 0.234375
v 0 -1.75 0.234375
v -1.5 0 0
v -1.065 -1.065 1.117587e-8
v 0 -1.5 0
v 1.2425 -1.2425 0.234375
v 1.75 0 0.234375
v 1.065 -1.065 1.117587e-8
v 1.5 0 0
v 0 1.75 0.234375
v 1.2425 1.2425 0.234375
v 0 1.5 0
v 1.065 1.065 1.117587e-8
v -1.2425 1.2425 0.234375
v -1.065 1.065 1.117587e-8

vn 0 0 1
vn 0 -1 0
vn 0 0 -1
vn -0.2873479 0 0.9578263
vn 0 -1 0
vn 0.1961161 0 -0.9805806
vn -1 0 0
vn 0 -1 0
vn 1 0 0
vn 0 1 0
vn 0 1 0
vn 0 1 0
vn -0.8290722 0 -0.5591416
vn 0 -1 0
vn 0.8944272 0 0.4472137
vn -0.5144956 0 -0.857493
vn 0 -1 0
vn 0.5144957 0 0.8574929
vn 0 1 0
vn 0 1 0
vn 0.7071059 0 -0.7071076
vn 0 1 0
vn -0.5144954 0 0.8574931
vn 0 0 1
vn -0.04643553 -0.07911264 0.9957836
vn 0.1414206 0 0.9899496
vn -0.7071068 0 0.7071068
vn 0 -1 0
vn 0.4856427 0 -0.8741574
vn 0 -1 0
vn -0.04643553 0.07911264 0.9957836
vn 0 1 0
vn -0.9529258 0 0.3032037
vn 0.2156225 -0.9669339 0.1361827
vn 0.9756098 0 -0.2195122
vn 0 0 1
vn 0 -1 0
vn 0.2095291 0 -0.9778025
vn 0.2156225 0.9669339 0.1361827
vn 0 1 0
vn 0 0 1
vn -0.8574929 0 -0.5144958
vn -0.605398 -0.605398 -0.5167072
vn 0 -0.8574929 -0.5144958
vn -0.7071068 0 0.7071067
vn -0.4989779 -0.4989779 0.7085493
vn 0 -0.7071068 0.7071067
vn 0.605398 -0.605398 -0.5167072
vn 0.8574929 0 -0.5144958
vn 0.4989779 -0.4989779 0.7085493
vn 0.7071068 0 0.7071067
vn 0 0.8574929 -0.5144958
vn 0.605398 0.605398 -0.5167072
vn 0 0.7071068 0.7071067
vn 0.4989779 0.4989779 0.7085493
vn -0.605398 0.605398 -0.5167072
vn -0.4989779 0.4989779 0.7085493
vn -0.1961161 0 0.9805807
vn -0.1381314 -0.1381314 0.9807341
vn 0 -0.1961161 0.9805807
vn -1 0 0
vn -0.7071068 -0.7071068 0
vn 0 -1 0
vn 0.1381314 -0.1381314 0.9807341
vn 0.1961161 0 0.9805807
vn 0.7071068 -0.7071068 0
vn 1 0 0
vn 0 0.1961161 0.9805807
vn 0.1381314 0.1381314 0.9807341
vn 0 1 0
vn 0.7071068 0.7071068 0
vn -0.1381314 0.1381314 0.9807341
vn -0.7071068 0.7071068 0
vn 0.9417419 0 -0.3363365
vn 0.6656033 0.6656033 -0.3375565
vn 0 0.9417419 -0.3363365
vn 0 0 1
vn 0 0 1
vn 0 0 1
vn -0.9417419 0 0.3363365
vn -0.6656032 -0.6656032 0.3375569
vn 0 -0.9417419 0.3363365
vn -0.6656033 0.6656033 -0.3375565
vn -0.9417419 0 -0.3363365
vn 0 0 1
vn 0 0 1
vn 0.6656032 -0.6656032 0.3375569
vn 0.9417419 0 0.3363365
vn 0 -0.9417419 -0.3363365
vn -0.6656033 -0.6656033 -0.3375565
vn 0 0 1
vn 0 0 1
vn 0 0.9417419 0.3363365
vn 0.6656032 0.6656032 0.3375569
vn 0.6656033 -0.6656033 -0.3375565
vn 0 0 1
vn -0.6656032 0.6656032 0.3375569
vn -0.9635179 0 0.2676438
vn -0.6811101 -0.6811101 0.2686601
vn 0 -0.9635179 0.2676438
vn -1 0 0
vn -0.7071068 -0.7071068 0
vn 0 -1 0
vn 0.6811101 -0.6811101 0.2686601
vn 0.9635179 0 0.2676438
vn 0.7071068 -0.7071068 0
vn 1 0 0
vn 0 0.9635179 0.2676438
vn 0.6811101 0.6811101 0.2686601
vn 0 1 0
vn 0.7071068 0.7071068 0
vn -0.6811101 0.6811101 0.2686601
vn -0.7071068 0.7071068 0
vn -0.792624 0 -0.6097108
vn -0.5596175 -0.5596175 -0.6112745
vn 0 -0.792624 -0.6097108
vn -1 0 0
vn -0.7071068 -0.7071068 0
vn 0 -1 0
vn 0.5596175 -0.5596175 -0.6112745
vn 0.792624 0 -0.6097108
vn 0.7071068 -0.7071068 0
vn 1 0 0
vn 0 0.792624 -0.6097108
vn 0.5596175 0.5596175 -0.6112745
vn 0 1 0
vn 0.7071068 0.7071068 0
vn -0.5596175 0.5596175 -0.6112745
vn -0.7071068 0.7071068 0

vt 0.125 1
vt 0.1835938 1
vt 0.2421875 1
vt 0.125 0.8571429
vt 0.1835938 0.8535714
vt 0.2421875 0.8482143
vt 0.125 0.75
vt 0.1835938 0.75
vt 0.2421875 0.75
vt 0.06640625 1
vt 0.0078125 1
vt 0.06640625 0.8535714
vt 0.0078125 0.8482143
vt 0.06640625 0.75
vt 0.0078125 0.75
vt 0.125 0.6450101
vt 0.1835938 0.6471369
vt 0.2421875 0.6500361
vt 0.125 0.5175
vt 0.1835938 0.5175
vt 0.2421875 0.5175
vt 0.06640625 0.6471369
vt 0.0078125 0.6500361
vt 0.06640625 0.5175
vt 0.0078125 0.5175
vt 0.75 1
vt 0.8125 1
vt 0.875 1
vt 0.75 0.9625
vt 0.8125 0.9614999
vt 0.875 0.9609703
vt 0.75 0.925
vt 0.8125 0.925
vt 0.875 0.925
vt 1 1
vt 0.9375 1
vt 1 0.9625
vt 0.9375 0.9614999
vt 1 0.925
vt 0.9375 0.925
vt 0.75 0.7405194
vt 0.8125 0.7362506
vt 0.875 0.7338991
vt 0.75 0.5132812
vt 0.8125 0.5132812
vt 0.875 0.5132812
vt 1 0.7405194
vt 0.9375 0.7362506
vt 1 0.5132812
vt 0.9375 0.5132812
vt 0.375 0.75
vt 0.375 0.6098246
vt 0.4245822 0.6508355
vt 0.4450877 0.75
vt 0.375 0.515625
vt 0.4578641 0.5842718
vt 0.4921875 0.75
vt 0.4245822 0.8491645
vt 0.375 0.8901754
vt 0.457864 0.9157282
vt 0.375 0.984375
vt 0.3049123 0.75
vt 0.3254178 0.8491645
vt 0.2578125 0.75
vt 0.292136 0.9157282
vt 0.3254178 0.6508355
vt 0.2921359 0.5842718
vt 0.625 0.7139423
vt 0.6377483 0.7245034
vt 0.6430289 0.75
vt 0.625 0.6103284
vt 0.6743875 0.651225
vt 0.6948358 0.75
vt 0.625 0.515625
vt 0.707864 0.5842718
vt 0.7421875 0.75
vt 0.6377483 0.7754967
vt 0.625 0.7860577
vt 0.6743875 0.848775
vt 0.625 0.8896716
vt 0.707864 0.9157282
vt 0.625 0.984375
vt 0.6069711 0.75
vt 0.6122517 0.7754967
vt 0.5551642 0.75
vt 0.5756125 0.848775
vt 0.5078125 0.75
vt 0.542136 0.9157282
vt 0.6122517 0.7245034
vt 0.5756125 0.651225
vt 0.542136 0.5842718
vt 0 0.5
vt 0.125 0.5
vt 0.25 0.5
vt 0 0.479
vt 0.125 0.479
vt 0.25 0.479
vt 0 0.458
vt 0.125 0.458
vt 0.25 0.458
vt 0.375 0.5
vt 0.5 0.5
vt 0.375 0.479
vt 0.5 0.479
vt 0.375 0.458
vt 0.5 0.458
vt 0.75 0.5
vt 0.625 0.5
vt 0.75 0.479
vt 0.625 0.479
vt 0.75 0.458
vt 0.625 0.458
vt 1 0.5
vt 0.875 0.5
vt 1 0.479
vt 0.875 0.479
vt 1 0.458
vt 0.875 0.458
vt 0 0.3586324
vt 0.125 0.3586224
vt 0.25 0.3586324
vt 0 0.269
vt 0.125 0.269
vt 0.25 0.269
vt 0.375 0.3586224
vt 0.5 0.3586324
vt 0.375 0.269
vt 0.5 0.269
vt 0.75 0.3586324
vt 0.625 0.3586224
vt 0.75 0.269
vt 0.625 0.269
vt 1 0.3586324
vt 0.875 0.3586224
vt 1 0.269
vt 0.875 0.269
vt 0 0.1921104
vt 0.125 0.1921341
vt 0.25 0.1921104
vt 0 0.15
vt 0.125 0.15
vt 0.25 0.15
vt 0.375 0.1921341
vt 0.5 0.1921104
vt 0.375 0.15
vt 0.5 0.15
vt 0.75 0.1921104
vt 0.625 0.1921341
vt 0.75 0.15
vt 0.625 0.15
vt 1 0.1921104
vt 0.875 0.1921341
vt 1 0.15
vt 0.875 0.15

f 2/2/2 1/1/1 4/4/4
f 4/4/4 5/5/5 2/2/2
f 3/3/3 2/2/2 5/5/5
f 5/5/5 6/6/6 3/3/3
f 5/5/5 4/4/4 7/7/7
f 7/7/7 8/8/8 5/5/5
f 6/6/6 5/5/5 8/8/8
f 8/8/8 9/9/9 6/6/6
f 4/4/4 1/1/1 10/10/10
f 10/10/10 11/12/11 4/4/4
f 11/12/11 10/10/10 3/11/3
f 3/11/3 6/13/6 11/12/11
f 7/7/7 4/4/4 11/12/11
f 11/12/11 12/14/12 7/7/7
f 12/14/12 11/12/11 6/13/6
f 6/13/6 9/15/9 12/14/12
f 8/8/8 7/7/7 13/16/13
f 13/16/13 14/17/14 8/8/8
f 9/9/9 8/8/8 14/17/14
f 14/17/14 15/18/15 9/9/9
f 14/17/14 13/16/13 16/19/16
f 16/19/16 17/20/17 14/17/14
f 15/18/15 14/17/14 17/20/17
f 17/20/17 18/21/18 15/18/15
f 13/16/13 7/7/7 12/14/12
f 12/14/12 19/22/19 13/16/13
f 19/22/19 12/14/12 9/15/9
f 9/15/9 15/23/15 19/22/19
f 16/19/16 13/16/13 19/22/19
f 19/22/19 20/24/20 16/19/16
f 20/24/20 19/22/19 15/23/15
f 15/23/15 18/25/18 20/24/20
f 22/27/22 21/26/21 24/29/24
f 24/29/24 25/30/25 22/27/22
f 23/28/23 22/27/22 25/30/25
f 25/30/25 26/31/26 23/28/23
f 25/30/25 24/29/24 27/32/27
f 27/32/27 28/33/28 25/30/25
f 26/31/26 25/30/25 28/33/28
f 28/33/28 29/34/29 26/31/26
f 24/37/24 21/35/21 30/36/30
f 30/36/30 31/38/31 24/37/24
f 31/38/31 30/36/30 23/28/23
f 23/28/23 26/31/26 31/38/31
f 27/39/27 24/37/24 31/38/31
f 31/38/31 32/40/32 27/39/27
f 32/40/32 31/38/31 26/31/26
f 26/31/26 29/34/29 32/40/32
f 28/33/28 27/32/27 33/41/33
f 33/41/33 34/42/34 28/33/28
f 29/34/29 28/33/28 34/42/34
f 34/42/34 35/43/35 29/34/29
f 34/42/34 33/41/33 36/44/36
f 36/44/36 37/45/37 34/42/34
f 35/43/35 34/42/34 37/45/37
f 37/45/37 38/46/38 35/43/35
f 33/47/33 27/39/27 32/40/32
f 32/40/32 39/48/39 33/47/33
f 39/48/39 32/40/32 29/34/29
f 29/34/29 35/43/35 39/48/39
f 36/49/36 33/47/33 39/48/39
f 39/48/39 40/50/40 36/49/36
f 40/50/40 39/48/39 35/43/35
f 35/43/35 38/46/38 40/50/40
f 41/51/41 42/52/42 43/53/43
f 41/51/41 43/53/43 44/54/44
f 43/53/43 42/52/42 45/55/45
f 45/55/45 46/56/46 43/53/43
f 44/54/44 43/53/43 46/56/46
f 46/56/46 47/57/47 44/54/44
f 41/51/41 44/54/44 48/58/48
f 41/51/41 48/58/48 49/59/49
f 48/58/48 44/54/44 47/57/47
f 47/57/47 50/60/50 48/58/48
f 49/59/49 48/58/48 50/60/50
f 50/60/50 51/61/51 49/59/49
f 52/62/52 41/51/41 53/63/53
f 53/63/53 41/51/41 49/59/49
f 54/64/54 52/62/52 53/63/53
f 53/63/53 55/65/55 54/64/54
f 55/65/55 53/63/53 49/59/49
f 49/59/49 51/61/51 55/65/55
f 42/52/42 41/51/41 56/66/56
f 56/66/56 41/51/41 52/62/52
f 45/55/45 42/52/42 56/66/56
f 56/66/56 57/67/57 45/55/45
f 57/67/57 56/66/56 52/62/52
f 52/62/52 54/64/54 57/67/57
f 46/69/46 45/68/45 58/71/58
f 58/71/58 59/72/59 46/69/46
f 47/70/47 46/69/46 59/72/59
f 59/72/59 60/73/60 47/70/47
f 59/72/59 58/71/58 61/74/61
f 61/74/61 62/75/62 59/72/59
f 60/73/60 59/72/59 62/75/62
f 62/75/62 63/76/63 60/73/60
f 50/77/50 47/70/47 60/73/60
f 60/73/60 64/79/64 50/77/50
f 51/78/51 50/77/50 64/79/64
f 64/79/64 65/80/65 51/78/51
f 64/79/64 60/73/60 63/76/63
f 63/76/63 66/81/66 64/79/64
f 65/80/65 64/79/64 66/81/66
f 66/81/66 67/82/67 65/80/65
f 68/85/68 54/83/54 55/84/55
f 55/84/55 69/86/69 68/85/68
f 69/86/69 55/84/55 51/78/51
f 51/78/51 65/80/65 69/86/69
f 70/87/70 68/85/68 69/86/69
f 69/86/69 71/88/71 70/87/70
f 71/88/71 69/86/69 65/80/65
f 65/80/65 67/82/67 71/88/71
f 58/71/58 45/68/45 57/89/57
f 57/89/57 72/90/72 58/71/58
f 72/90/72 57/89/57 54/83/54
f 54/83/54 68/85/68 72/90/72
f 61/74/61 58/71/58 72/90/72
f 72/90/72 73/91/73 61/74/61
f 73/91/73 72/90/72 68/85/68
f 68/85/68 70/87/70 73/91/73
f 75/93/75 74/92/74 77/95/77
f 77/95/77 78/96/78 75/93/75
f 76/94/76 75/93/75 78/96/78
f 78/96/78 79/97/79 76/94/76
f 78/96/78 77/95/77 80/98/80
f 80/98/80 81/99/81 78/96/78
f 79/97/79 78/96/78 81/99/81
f 81/99/81 82/100/82 79/97/79
f 83/101/83 76/94/76 79/97/79
f 79/97/79 85/103/85 83/101/83
f 84/102/84 83/101/83 85/103/85
f 85/103/85 86/104/86 84/102/84
f 85/103/85 79/97/79 82/100/82
f 82/100/82 87/105/87 85/103/85
f 86/104/86 85/103/85 87/105/87
f 87/105/87 88/106/88 86/104/86
f 91/109/91 89/107/89 90/108/90
f 90/108/90 92/110/92 91/109/91
f 92/110/92 90/108/90 84/102/84
f 84/102/84 86/104/86 92/110/92
f 93/111/93 91/109/91 92/110/92
f 92/110/92 94/112/94 93/111/93
f 94/112/94 92/110/92 86/104/86
f 86/104/86 88/106/88 94/112/94
f 77/115/77 74/113/74 95/114/95
f 95/114/95 96/116/96 77/115/77
f 96/116/96 95/114/95 89/107/89
f 89/107/89 91/109/91 96/116/96
f 80/117/80 77/115/77 96/116/96
f 96/116/96 97/118/97 80/117/80
f 97/118/97 96/116/96 91/109/91
f 91/109/91 93/111/93 97/118/97
f 81/99/81 80/98/80 98/119/98
f 98/119/98 99/120/99 81/99/81
f 82/100/82 81/99/81 99/120/99
f 99/120/99 100/121/100 82/100/82
f 99/120/99 98/119/98 101/122/101
f 101/122/101 102/123/102 99/120/99
f 100/121/100 99/120/99 102/123/102
f 102/123/102 103/124/103 100/121/100
f 87/105/87 82/100/82 100/121/100
f 100/121/100 104/125/104 87/105/87
f 88/106/88 87/105/87 104/125/104
f 104/125/104 105/126/105 88/106/88
f 104/125/104 100/121/100 103/124/103
f 103/124/103 106/127/106 104/125/104
f 105/126/105 104/125/104 106/127/106
f 106/127/106 107/128/107 105/126/105
f 108/129/108 93/111/93 94/112/94
f 94/112/94 109/130/109 108/129/108
f 109/130/109 94/112/94 88/106/88
f 88/106/88 105/126/105 109/130/109
f 110/131/110 108/129/108 109/130/109
f 109/130/109 111/132/111 110/131/110
f 111/132/111 109/130/109 105/126/105
f 105/126/105 107/128/107 111/132/111
f 98/133/98 80/117/80 97/118/97
f 97/118/97 112/134/112 98/133/98
f 112/134/112 97/118/97 93/111/93
f 93/111/93 108/129/108 112/134/112
f 101/135/101 98/133/98 112/134/112
f 112/134/112 113/136/113 101/135/101
f 113/136/113 112/134/112 108/129/108
f 108/129/108 110/131/110 113/136/113
f 102/123/102 101/122/101 114/137/114
f 114/137/114 115/138/115 102/123/102
f 103/124/103 102/123/102 115/138/115
f 115/138/115 116/139/116 103/124/103
f 115/138/115 114/137/114 117/140/117
f 117/140/117 118/141/118 115/138/115
f 116/139/116 115/138/115 118/141/118
f 118/141/118 119/142/119 116/139/116
f 106/127/106 103/124/103 116/139/116
f 116/139/116 120/143/120 106/127/106
f 107/128/107 106/127/106 120/143/120
f 120/143/120 121/144/121 107/128/107
f 120/143/120 116/139/116 119/142/119
f 119/142/119 122/145/122 120/143/120
f 121/144/121 120/143/120 122/145/122
f 122/145/122 123/146/123 121/144/121
f 124/147/124 110/131/110 111/132/111
f 111/132/111 125/148/125 124/147/124
f 125/148/125 111/132/111 107/128/107
f 107/128/107 121/144/121 125/148/125
f 126/149/126 124/147/124 125/148/125
f 125/148/125 127/150/127 126/149/126
f 127/150/127 125/148/125 121/144/121
f 121/144/121 123/146/123 127/150/127
f 114/151/114 101/135/101 113/136/113
f 113/136/113 128/152/128 114/151/114
f 128/152/128 113/136/113 110/131/110
f 110/131/110 124/147/124 128/152/128
f 117/153/117 114/151/114 128/152/128
f 128/152/128 129/154/129 117/153/117
f 129/154/129 128/152/128 124/147/124
f 124/147/124 126/149/126 129/154/129
